{"asset":{"version":"2.0","generator":"THREE.GLTFExporter"},"scenes":[{"nodes":[0],"name":"AuxScene"}],"scene":0,"nodes":[{"mesh":0}],"bufferViews":[{"buffer":0,"byteOffset":0,"byteLength":7596,"target":34962,"byteStride":12},{"buffer":0,"byteOffset":7596,"byteLength":7596,"target":34962,"byteStride":12}],"buffers":[{"byteLength":15192,"uri":"data:application/octet-stream;base64,"}],"accessors":[{"bufferView":0,"componentType":5126,"count":633,"max":[16.33333396911621,3.5,16.33333396911621],"min":[-16.366666793823242,0.10000000149011612,-16.366666793823242],"type":"VEC3"},{"bufferView":1,"componentType":5126,"count":633,"max":[0.3035883605480194,1,0.48574206233024597],"min":[-0.02894904650747776,0.8196882009506226,-0.03843313083052635],"type":"VEC3"}],"materials":[{"pbrMetallicRoughness":{"baseColorFactor":[0.5019607843137255,0.5019607843137255,0.5019607843137255,1],"metallicFactor":0,"roughnessFactor":1}}],"meshes":[{"primitives":[{"mode":4,"attributes":{"POSITION":0,"NORMAL":1},"material":0}]}]}